Coordinates
version=1
nRows=29
nColumns=24
inDegrees=yes

Units are S.I. units (second, meters, Newtons, ...)
Angles are in degrees.

endheader
time	pelvis_tilt	pelvis_list	pelvis_rotation	pelvis_tx	pelvis_ty	pelvis_tz	hip_flexion_r	hip_adduction_r	hip_rotation_r	knee_angle_r	ankle_angle_r	subtalar_angle_r	mtp_angle_r	hip_flexion_l	hip_adduction_l	hip_rotation_l	knee_angle_l	ankle_angle_l	subtalar_angle_l	mtp_angle_l	lumbar_extension	lumbar_bending	lumbar_rotation
      3.16000000	     23.96547338	     -2.13456045	     -0.38188011	     -0.24898778	      1.03777974	     -0.02707114	     -4.17426231	     -3.76241562	    -11.88955164	    -30.32703772	      7.36557407	    -10.95997523	     31.99838199	    -27.77426555	     -0.86269302	     -4.28803143	     -9.58698564	     14.98604566	     -0.75066607	      1.36693002	    -40.22568509	      0.31887765	      0.59423357
      3.16500000	     23.94065158	     -2.14645025	     -0.33690788	     -0.24405938	      1.03741104	     -0.02669154	     -4.16536973	     -3.60612649	    -11.81736749	    -28.78538757	      7.34591984	    -10.67134751	     31.70097792	    -28.16167043	     -0.92305110	     -4.32708922	     -9.39833438	     15.13333512	     -0.57762662	      1.46985923	    -40.23482577	      0.35529946	      0.55808020
      3.17000000	     23.91268137	     -2.14808669	     -0.30530336	     -0.23914503	      1.03699075	     -0.02628781	     -4.16421312	     -3.46423274	    -11.74102108	    -27.23490872	      7.31798603	    -10.36014557	     31.42843917	    -28.54691662	     -0.96798037	     -4.38198705	     -9.20443281	     15.26066146	     -0.40540845	      1.57239469	    -40.24378874	      0.37568461	      0.53154275
      3.17500000	     23.85767849	     -2.12874066	     -0.28142625	     -0.23420647	      1.03652209	     -0.02584542	     -4.14732712	     -3.34566928	    -11.67055874	    -25.68068413	      7.27323627	    -10.03846956	     31.02507822	    -28.90488972	     -0.99354857	     -4.45522946	     -9.00440350	     15.33050229	     -0.18914523	      1.72434712	    -40.22208602	      0.37281695	      0.49030241
      3.18000000	     23.78751273	     -2.09444549	     -0.26471208	     -0.22936213	      1.03597883	     -0.02539739	     -4.11496894	     -3.24572299	    -11.57858016	    -24.13396821	      7.21459288	     -9.65242924	     30.76934413	    -29.21642623	     -0.99841570	     -4.48395262	     -8.85697364	     15.48134295	     -0.05399998	      1.84827191	    -40.19520621	      0.35287383	      0.46256261
      3.18500000	     23.64024900	     -2.04390929	     -0.27267063	     -0.22453124	      1.03531221	     -0.02491606	     -3.98951299	     -3.16959917	    -11.47376685	    -22.61779447	      7.05742730	     -9.29806001	     30.65915007	    -29.43704351	     -0.97541296	     -4.50174276	     -8.71957660	     15.59281110	      0.00964699	      1.91057644	    -40.08938060	      0.30724663	      0.45477928
      3.19000000	     23.62686707	     -1.99211643	     -0.24486696	     -0.21960685	      1.03478212	     -0.02442614	     -4.06809954	     -3.08663426	    -11.41919265	    -21.04843153	      6.98159857	     -8.91100503	     30.43837101	    -29.82865187	     -0.97528312	     -4.57185862	     -8.53977021	     15.72151658	      0.24846215	      2.04845276	    -40.11565435	      0.27520786	      0.38653829
      3.19500000	     23.53866383	     -1.93462310	     -0.23941264	     -0.21472552	      1.03413138	     -0.02391436	     -4.04864740	     -3.01615707	    -11.34519429	    -19.52844325	      6.81190972	     -8.53118860	     30.22990006	    -30.11909246	     -0.95656338	     -4.61869422	     -8.39578251	     15.83513585	      0.39196239	      2.18357106	    -40.06781498	      0.22909186	      0.35431913
      3.20000000	     23.47658975	     -1.85718879	     -0.22440881	     -0.20985153	      1.03349108	     -0.02340917	     -4.07520716	     -2.96704213	    -11.28365655	    -18.01416747	      6.63606447	     -8.15346907	     30.01312000	    -30.42603348	     -0.92482237	     -4.65354668	     -8.27095651	     15.92780290	      0.55606364	      2.33965396	    -40.05053469	      0.17093681	      0.32145114
      3.20500000	     23.38836171	     -1.77549276	     -0.21369928	     -0.20492225	      1.03279987	     -0.02288162	     -4.07607259	     -2.92556498	    -11.23872937	    -16.54138852	      6.42180386	     -7.78950955	     29.80849500	    -30.71411992	     -0.88710042	     -4.68765254	     -8.13173087	     16.02959524	      0.69512035	      2.50430965	    -39.99959540	      0.10830608	      0.26790712
      3.21000000	     23.34024789	     -1.68002899	     -0.19278877	     -0.20000937	      1.03212441	     -0.02234851	     -4.13129703	     -2.89862967	    -11.20849056	    -15.09672664	      6.20749452	     -7.41480690	     29.57479924	    -31.02934861	     -0.84405691	     -4.71339503	     -8.02235004	     16.11424117	      0.86113237	      2.71896210	    -39.99291156	      0.03694785	      0.22968508
      3.21500000	     23.23779970	     -1.57330334	     -0.21460037	     -0.19506081	      1.03135643	     -0.02175114	     -4.09979743	     -2.89342024	    -11.15133911	    -13.75980298	      6.11610930	     -6.91857039	     28.10269742	    -31.29777789	     -0.76917325	     -4.76712480	     -7.88806248	     16.05366063	      0.96825161	      4.28597767	    -39.92685744	     -0.06782962	      0.20485541
      3.22000000	     23.17537843	     -1.46296693	     -0.16046235	     -0.19007722	      1.03064220	     -0.02123204	     -4.14869935	     -2.88215680	    -11.18900920	    -12.41707164	      5.83131889	     -6.62481588	     28.08313232	    -31.59635485	     -0.72689804	     -4.72235890	     -7.77810895	     16.12992194	      1.01881786	      4.35091887	    -39.90068073	     -0.13103228	      0.10169527
      3.22500000	     23.16007963	     -1.36420676	     -0.11994972	     -0.18503006	      1.02996599	     -0.02069520	     -4.25016475	     -2.86511290	    -11.24640011	    -11.13933490	      5.57887840	     -6.25973943	     28.06668967	    -31.95203020	     -0.69228747	     -4.73482825	     -7.67021748	     16.20464972	      1.16923820	      4.45827274	    -39.91509476	     -0.18961806	      0.04698689
      3.23000000	     23.11956943	     -1.25723358	     -0.07579424	     -0.17997451	      1.02924488	     -0.02013372	     -4.31119425	     -2.85687250	    -11.31345095	     -9.95104394	      5.32820768	     -5.91904036	     28.04561995	    -32.27017929	     -0.65476145	     -4.73341807	     -7.58058792	     16.28267098	      1.31176272	      4.59981880	    -39.90578839	     -0.25457946	     -0.02212302
      3.23500000	     23.10001105	     -1.15822941	     -0.02613908	     -0.17485880	      1.02853841	     -0.01956250	     -4.39163548	     -2.84085626	    -11.41108986	     -8.84546260	      5.08586750	     -5.58204004	     28.02341635	    -32.61657739	     -0.62896865	     -4.73640953	     -7.48662382	     16.34807781	      1.44762148	      4.77044212	    -39.91133900	     -0.30851457	     -0.08944760
      3.24000000	     23.08669265	     -1.05910496	      0.03559582	     -0.16970444	      1.02784869	     -0.01899332	     -4.47171851	     -2.82569737	    -11.54115727	     -7.83195630	      4.85215076	     -5.24836847	     28.00362741	    -32.96573640	     -0.61153243	     -4.73050849	     -7.40141832	     16.40124120	      1.58135111	      4.97029398	    -39.92038829	     -0.35423342	     -0.16475700
      3.24500000	     23.08523030	     -0.96615717	      0.10571778	     -0.16451240	      1.02717096	     -0.01841552	     -4.55691389	     -2.80381793	    -11.68963510	     -6.91308698	      4.64370027	     -4.92163865	     27.99037800	    -33.31968086	     -0.60735711	     -4.72203812	     -7.33644238	     16.44608074	      1.71661829	      5.21066948	    -39.93775681	     -0.38967049	     -0.23473998
      3.25000000	     23.10818943	     -0.88619908	      0.18450793	     -0.15928509	      1.02651742	     -0.01782617	     -4.65863483	     -2.76698691	    -11.85926385	     -6.09543751	      4.45412243	     -4.60585448	     27.98220736	    -33.69958426	     -0.62203571	     -4.71474749	     -7.27505533	     16.47970952	      1.85012128	      5.50403784	    -39.97820101	     -0.40762595	     -0.30504201
      3.25500000	     23.12179585	     -0.81364171	      0.27416495	     -0.15399611	      1.02586388	     -0.01723956	     -4.73675727	     -2.72315313	    -12.06099116	     -5.38931034	      4.26988854	     -4.31493588	     27.97918451	    -34.06783850	     -0.65198384	     -4.70900631	     -7.22017202	     16.51078631	      1.98309659	      5.81597855	    -40.00241939	     -0.41043236	     -0.38546061
      3.26000000	     23.16502306	     -0.75669615	      0.37259172	     -0.14867752	      1.02525130	     -0.01665264	     -4.83976498	     -2.66245078	    -12.26455682	     -4.78260014	      4.11662825	     -4.03566746	     27.98798943	    -34.46054616	     -0.70392592	     -4.70091757	     -7.18373814	     16.52444549	      2.11571096	      6.17559589	    -40.05485848	     -0.39195395	     -0.45609961
      3.26500000	     23.15813854	     -0.67209822	      0.45300628	     -0.14337676	      1.02458657	     -0.01603472	     -4.84972222	     -2.64003243	    -12.44695677	     -4.32308153	      3.98007629	     -3.77632676	     28.13943225	    -34.78029426	     -0.71933742	     -4.65311020	     -7.16016317	     16.19584250	      2.02304909	      9.51020462	    -40.05776275	     -0.40892195	     -0.53417122
      3.27000000	     23.20039537	     -0.63348970	      0.54634613	     -0.13802289	      1.02399337	     -0.01540152	     -4.91808689	     -2.56142592	    -12.62247861	     -3.93757915	      3.78083076	     -3.63560779	     28.13004695	    -35.15023031	     -0.79080375	     -4.65089550	     -7.17065310	     16.22584560	      2.13203236	      9.56100619	    -40.10683615	     -0.37660531	     -0.56414384
      3.27500000	     23.26222239	     -0.61746109	      0.66665763	     -0.13255456	      1.02341618	     -0.01478216	     -5.00561397	     -2.45967647	    -12.82771606	     -3.66204084	      3.69277383	     -3.42969548	     28.14844737	    -35.55031423	     -0.90310653	     -4.65396726	     -7.17258155	     16.27096969	      2.30369129	      9.68115993	    -40.16304965	     -0.30590892	     -0.63645124
      3.28000000	     23.31503900	     -0.59976166	      0.78643553	     -0.12709187	      1.02285696	     -0.01414243	     -5.06714157	     -2.36285431	    -13.01701163	     -3.49403837	      3.57190656	     -3.25575963	     28.17605979	    -35.91678040	     -1.01673095	     -4.64400091	     -7.21657114	     16.29280048	      2.43713447	      9.84873693	    -40.21086973	     -0.23800117	     -0.69367696
      3.28500000	     23.37803490	     -0.59350710	      0.91192840	     -0.12159376	      1.02230989	     -0.01349534	     -5.13233109	     -2.25663811	    -13.19128093	     -3.42162233	      3.44360750	     -3.10819779	     28.21673641	    -36.28344091	     -1.14704079	     -4.63961619	     -7.28253141	     16.30491378	      2.56341670	     10.08000517	    -40.26542909	     -0.15590555	     -0.73757212
      3.29000000	     23.41682718	     -0.60074780	      1.03301561	     -0.11608510	      1.02175237	     -0.01285191	     -5.15606706	     -2.14400628	    -13.30711882	     -3.45116993	      3.26677564	     -2.99379098	     28.25331476	    -36.60068922	     -1.28731463	     -4.63302962	     -7.39433959	     16.31061405	      2.65493927	     10.29899698	    -40.29380416	     -0.05685475	     -0.77951106
      3.29500000	     23.51151602	     -0.61780018	      1.16323487	     -0.11049271	      1.02126422	     -0.01217131	     -5.23513266	     -2.02030192	    -13.46779888	     -3.57835215	      3.15287619	     -2.87369211	     28.37132009	    -36.99018344	     -1.44951234	     -4.62101235	     -7.48798394	     16.28479290	      2.80975980	     10.81803708	    -40.37046094	      0.04932879	     -0.81748084
      3.30000000	     23.52908023	     -0.64417517	      1.23961805	     -0.10491308	      1.02071020	     -0.01145374	     -5.20164951	     -1.90661472	    -13.48353486	     -3.80587708	      2.87807762	     -2.82410356	     29.10838021	    -37.27636055	     -1.58024089	     -4.63139267	     -7.60229738	     15.93715692	      2.67996728	     13.83602604	    -40.36786733	      0.14130996	     -0.80091827
